<svg width="199" height="99" viewBox="0 0 199 99" fill="none" xmlns="http://www.w3.org/2000/svg">
    <path
        d="M2.79 19.5H11.52V32.28L22.365 19.5H32.715L20.79 33.045L33.12 51H22.635L14.715 39.3L11.52 42.855V51H2.79V19.5ZM35.6611 19.5H60.9961V26.925H44.3011V31.695H59.4211V38.58H44.3011V43.575H61.2211V51H35.6611V19.5ZM78.0507 51.54C75.2307 51.54 72.5457 51.105 69.9957 50.235C67.4757 49.365 65.2407 48.06 63.2907 46.32L68.1507 40.515C71.3007 43.035 74.7057 44.295 78.3657 44.295C79.5357 44.295 80.4207 44.115 81.0207 43.755C81.6507 43.365 81.9657 42.825 81.9657 42.135V42.045C81.9657 41.715 81.8907 41.43 81.7407 41.19C81.5907 40.92 81.3057 40.665 80.8857 40.425C80.4957 40.185 79.9557 39.96 79.2657 39.75C78.6057 39.51 77.7357 39.27 76.6557 39.03C74.9757 38.64 73.4157 38.22 71.9757 37.77C70.5357 37.29 69.2757 36.69 68.1957 35.97C67.1457 35.22 66.3057 34.305 65.6757 33.225C65.0757 32.115 64.7757 30.75 64.7757 29.13V29.04C64.7757 27.57 65.0457 26.22 65.5857 24.99C66.1557 23.76 66.9657 22.695 68.0157 21.795C69.0957 20.895 70.3857 20.205 71.8857 19.725C73.3857 19.215 75.0807 18.96 76.9707 18.96C79.6707 18.96 82.0707 19.32 84.1707 20.04C86.3007 20.73 88.2207 21.765 89.9307 23.145L85.5657 29.31C84.1257 28.29 82.6407 27.525 81.1107 27.015C79.6107 26.475 78.1557 26.205 76.7457 26.205C75.6957 26.205 74.9007 26.4 74.3607 26.79C73.8507 27.18 73.5957 27.66 73.5957 28.23V28.32C73.5957 28.68 73.6707 28.995 73.8207 29.265C74.0007 29.535 74.2857 29.79 74.6757 30.03C75.0957 30.24 75.6507 30.465 76.3407 30.705C77.0607 30.915 77.9607 31.14 79.0407 31.38C80.8407 31.77 82.4607 32.235 83.9007 32.775C85.3707 33.285 86.6157 33.915 87.6357 34.665C88.6557 35.415 89.4357 36.33 89.9757 37.41C90.5157 38.46 90.7857 39.72 90.7857 41.19V41.28C90.7857 42.9 90.4707 44.34 89.8407 45.6C89.2407 46.86 88.3857 47.94 87.2757 48.84C86.1657 49.71 84.8307 50.385 83.2707 50.865C81.7107 51.315 79.9707 51.54 78.0507 51.54ZM95.0312 19.5H103.761V31.29H114.966V19.5H123.696V51H114.966V39.03H103.761V51H95.0312V19.5ZM147.805 38.58L144.295 29.625L140.74 38.58H147.805ZM140.155 19.275H148.57L161.98 51H152.62L150.325 45.375H138.175L135.925 51H126.745L140.155 19.275ZM162.516 19.5H172.281L179.436 39.435L186.591 19.5H196.176L183.396 51.225H175.296L162.516 19.5Z"
        fill="#E26B2B" />
    <path
        d="M114.416 79.0269C114.24 79.0269 113.977 78.9316 113.625 78.7412C113.288 78.5508 112.79 78.2212 112.131 77.7524C111.486 77.2983 110.754 76.793 109.934 76.2363L98.0464 68.2603L94.5308 72.8965C94.5308 73.292 94.4795 73.5923 94.377 73.7974C94.2744 73.9878 94.0547 74.2588 93.7178 74.6104C92.9121 75.4453 92.2236 76.0825 91.6523 76.522C91.0957 76.9614 90.5903 77.1812 90.1362 77.1812C89.9165 77.1812 89.7261 77.0859 89.5649 76.8955C89.4038 76.7197 89.3232 76.5 89.3232 76.2363C89.3232 75.8848 89.5283 75.416 89.9385 74.8301L96.3765 66.832C95.9956 66.2314 95.8052 65.6162 95.8052 64.9863C95.8052 64.3418 95.981 63.7925 96.3325 63.3384C96.6987 62.8843 97.1162 62.5181 97.585 62.2397C98.0537 61.9614 99.3501 61.2583 101.474 60.1304C104.492 56.1313 106 53.8901 106 53.4067C106 53.0845 105.81 52.9233 105.429 52.9233C105.034 52.9233 104.155 53.1577 102.792 53.6265C101.445 54.0952 99.665 54.8203 97.4531 55.8018C95.2559 56.7686 92.6484 58.0137 89.6309 59.5371C89.3818 59.6689 89.0962 59.7275 88.7739 59.7129C88.4663 59.6836 88.2026 59.5591 87.9829 59.3394C87.7632 59.105 87.6533 58.7974 87.6533 58.4165C87.6533 58.2993 87.6826 58.1602 87.7412 57.999C87.7852 57.8379 87.8657 57.5889 87.9829 57.252C88.1001 56.9004 88.2026 56.5928 88.2905 56.3291C88.3198 56.2412 88.3857 55.9263 88.4883 55.3843C88.6055 54.8423 88.7959 54.3516 89.0596 53.9121C89.3232 53.458 89.77 52.96 90.3999 52.418C91.0444 51.876 91.96 51.3047 93.1465 50.7041C93.3662 50.5723 93.5713 50.4917 93.7617 50.4624C93.9521 50.4185 94.0474 50.4697 94.0474 50.6162C94.0474 50.6602 93.8276 50.8433 93.3882 51.1655C92.9634 51.4731 92.4946 51.9858 91.9819 52.7036C96.2593 51.2095 99.4087 50.1621 101.43 49.5615C103.466 48.9463 105.1 48.6387 106.33 48.6387C107.004 48.6387 107.568 49.1001 108.022 50.0229C108.476 50.9312 108.703 51.5244 108.703 51.8027C108.703 52.2129 108.542 52.6743 108.22 53.187L104.704 58.4604C107.487 57.0835 109.648 55.9922 111.186 55.1865C112.739 54.3662 114.423 53.48 116.24 52.5278C118.056 51.561 119.206 50.9604 119.689 50.7261C120.173 50.4771 120.488 50.3525 120.634 50.3525C120.971 50.3525 121.14 50.5063 121.14 50.814C121.14 50.9897 120.883 51.4731 120.371 52.2642C119.873 53.0405 119.316 53.7437 118.701 54.3735C118.085 54.9888 117.573 55.2964 117.163 55.2964C117.06 55.2964 116.936 55.2744 116.789 55.2305C116.643 55.1719 116.503 55.1206 116.372 55.0767C114.394 56.1021 111.97 57.3179 109.099 58.7241C106.242 60.1304 103.986 61.229 102.331 62.02L100.441 64.8545L111.582 72.4131C112.607 73.1016 113.347 73.6509 113.801 74.061C114.27 74.4712 114.614 74.918 114.833 75.4014C115.068 75.8848 115.185 76.4927 115.185 77.2251C115.185 78.4263 114.929 79.0269 114.416 79.0269ZM126.633 59.7568C126.267 59.7568 125.915 59.6177 125.578 59.3394C125.256 59.061 125.095 58.7095 125.095 58.2847C125.095 57.6401 125.402 56.9224 126.018 56.1313C126.633 55.3403 127.27 54.9448 127.929 54.9448C128.369 54.9448 128.735 55.084 129.028 55.3623C129.321 55.626 129.467 56.0142 129.467 56.5269C129.467 57.1567 129.167 57.8525 128.566 58.6143C127.966 59.376 127.321 59.7568 126.633 59.7568ZM128.127 69.5786V71.1826C126.706 73.0137 125.38 74.3979 124.15 75.3354C122.919 76.2583 121.872 76.7197 121.008 76.7197C119.807 76.7197 118.913 76.0898 118.327 74.8301C117.741 73.5703 117.448 72.1934 117.448 70.6992C117.448 70.1279 117.507 69.5859 117.624 69.0732C117.741 68.5459 117.88 68.1138 118.042 67.7769C118.203 67.4399 118.503 66.9126 118.942 66.1948C121.022 62.9575 122.927 61.3389 124.655 61.3389C125.549 61.3389 125.996 61.6831 125.996 62.3716C125.996 62.8403 125.703 63.5728 125.117 64.5688C124.545 65.5649 124.033 66.2754 123.579 66.7002C122.304 67.9307 121.469 68.7876 121.074 69.271C120.693 69.7544 120.502 70.3037 120.502 70.9189C120.502 71.4463 120.7 71.8857 121.096 72.2373C121.491 72.5889 122.004 72.7646 122.634 72.7646C123.322 72.7646 124.077 72.5156 124.897 72.0176C125.732 71.5049 126.809 70.6919 128.127 69.5786ZM135.664 58.1748H136.608C137.385 56.7832 138.088 55.8018 138.718 55.2305C139.348 54.6445 140.065 54.3516 140.871 54.3516C141.677 54.3516 142.08 54.5347 142.08 54.9009C142.08 55.0767 141.765 55.5527 141.135 56.3291C140.505 57.1055 140.029 57.7573 139.707 58.2847C140.205 58.3433 140.644 58.3945 141.025 58.4385C141.42 58.4824 141.728 58.519 141.948 58.5483C141.113 60.1011 140.065 61.6904 138.806 63.3164C138.396 63.2871 138.051 63.2651 137.773 63.2505C137.495 63.2212 137.209 63.1992 136.916 63.1846C136.638 63.1553 136.293 63.126 135.883 63.0967C135.092 64.3711 134.426 65.5137 133.884 66.5244C133.356 67.5205 132.946 68.436 132.653 69.271C132.375 70.106 132.236 70.897 132.236 71.644C132.236 72.6548 132.639 73.1602 133.444 73.1602C134.001 73.1602 134.726 72.8672 135.62 72.2812C136.528 71.6807 137.736 70.7651 139.245 69.5347V71.0068C135.29 75.2988 132.368 77.4448 130.478 77.4448C129.819 77.4448 129.284 77.1885 128.874 76.6758C128.479 76.1631 128.281 75.5039 128.281 74.6982C128.281 74.1562 128.391 73.5117 128.61 72.7646C128.845 72.0176 129.255 70.8896 129.841 69.3809C129.636 69.5566 129.438 69.7324 129.248 69.9082C129.072 70.0693 128.903 70.2231 128.742 70.3696C128.596 70.5015 128.435 70.6479 128.259 70.8091C128.083 70.9556 127.907 71.1094 127.731 71.2705V69.7544C129.27 68.4653 131.13 66.2021 133.312 62.9648C133.093 62.9502 132.888 62.9429 132.697 62.9429C132.507 62.9282 132.28 62.9209 132.016 62.9209C131.152 62.9209 130.507 62.9795 130.083 63.0967C129.907 63.1406 129.738 63.1919 129.577 63.2505C129.431 63.2944 129.328 63.3164 129.27 63.3164C129.211 63.3164 129.182 63.2725 129.182 63.1846C129.182 62.7012 129.482 61.9761 130.083 61.0093C130.566 60.189 131.02 59.5811 131.445 59.1855C131.884 58.79 132.412 58.5264 133.027 58.3945C133.657 58.248 134.536 58.1748 135.664 58.1748ZM152.429 69.6226V71.0947C150.861 72.6328 149.58 73.8267 148.583 74.6763C147.602 75.5259 146.679 76.1851 145.815 76.6538C144.965 77.1226 144.13 77.3569 143.31 77.3569C142.504 77.3569 141.765 77.042 141.091 76.4121C140.417 75.7676 139.89 74.9326 139.509 73.9072C139.128 72.8672 138.938 71.7686 138.938 70.6113C138.938 69.6152 139.157 68.729 139.597 67.9526C140.036 67.1763 140.886 66.1729 142.146 64.9424C143.64 63.4775 145.024 62.3496 146.298 61.5586C147.587 60.7529 148.598 60.3501 149.331 60.3501C149.858 60.3501 150.305 60.5332 150.671 60.8994C151.037 61.2656 151.22 61.7271 151.22 62.2837C151.22 62.7524 150.979 63.4189 150.495 64.2832C150.012 65.1475 149.47 65.9019 148.869 66.5464C148.269 67.1763 147.792 67.4912 147.441 67.4912C147.06 67.4912 146.87 67.2861 146.87 66.876C146.884 66.7588 146.892 66.6489 146.892 66.5464C146.906 66.4438 146.914 66.3413 146.914 66.2388C146.914 66.063 146.848 65.9678 146.716 65.9531C146.599 65.9238 146.452 65.9751 146.276 66.1069C144.812 67.1323 143.808 67.8574 143.266 68.2822C142.724 68.6924 142.292 69.1099 141.97 69.5347C141.662 69.9595 141.508 70.4062 141.508 70.875C141.508 71.7393 141.787 72.4424 142.343 72.9844C142.9 73.5264 143.625 73.7974 144.519 73.7974C145.441 73.7974 146.547 73.4458 147.836 72.7427C149.14 72.0249 150.671 70.9849 152.429 69.6226ZM168.776 69.5786V70.9629C167.502 72.2666 166.396 73.3359 165.458 74.1709C164.536 74.9912 163.723 75.6138 163.02 76.0386C162.331 76.4634 161.745 76.6758 161.262 76.6758C160.119 76.6758 159.548 76.002 159.548 74.6543C159.548 73.5703 159.899 72.3179 160.603 70.897C161.32 69.4614 162.346 67.7769 163.679 65.8433C163.02 66.2095 162.397 66.6343 161.811 67.1177C161.225 67.5864 160.705 68.0845 160.251 68.6118C159.797 69.1245 159.416 69.564 159.108 69.9302C158.156 70.9995 157.241 72.0981 156.362 73.2261C155.483 74.3394 154.89 75.0645 154.582 75.4014C154.274 75.7383 153.981 75.9067 153.703 75.9067C152.561 75.9067 151.989 74.5005 151.989 71.688C151.989 70.7651 152.128 69.7471 152.407 68.6338C152.685 67.5205 153.432 66.0483 154.648 64.2173C157.211 60.3794 159.401 57.2446 161.218 54.813C163.049 52.3667 164.565 50.521 165.766 49.2759C166.967 48.0161 167.773 47.4009 168.183 47.4302C168.696 47.4741 169.106 47.5767 169.414 47.7378C169.736 47.8989 169.897 48.082 169.897 48.2871C169.897 48.6533 169.641 49.2612 169.128 50.1108C168.63 50.9458 167.766 52.2568 166.535 54.0439C165.202 55.9336 164.257 57.2666 163.701 58.043C163.144 58.8047 162.309 59.896 161.196 61.3169C160.097 62.7231 159.086 63.9829 158.164 65.0962C157.255 66.1948 156.215 67.3887 155.043 68.6777V71.3145C157.006 69.1318 158.706 67.3447 160.141 65.9531C161.577 64.5615 162.792 63.5142 163.789 62.811C164.785 62.0933 165.517 61.7344 165.986 61.7344C166.425 61.7344 166.835 61.998 167.216 62.5254C167.597 63.0381 167.788 63.4629 167.788 63.7998C167.788 63.9463 167.714 64.1294 167.568 64.3491C166.513 65.6089 165.671 66.6562 165.041 67.4912C164.426 68.3115 163.95 69.0513 163.613 69.7104C163.276 70.355 163.107 70.9116 163.107 71.3804C163.107 72.0688 163.437 72.4131 164.096 72.4131C164.799 72.4131 166.359 71.4683 168.776 69.5786ZM172.292 70.3696V70.9189C172.292 71.7832 172.504 72.457 172.929 72.9404C173.354 73.4238 173.911 73.6655 174.599 73.6655C175.317 73.6655 176.057 73.4971 176.818 73.1602C177.595 72.8232 178.364 72.3765 179.125 71.8198C179.887 71.2632 180.817 70.5161 181.916 69.5786V70.9189C180.261 72.9111 178.708 74.4419 177.258 75.5112C175.808 76.5659 174.335 77.0933 172.841 77.0933C171.538 77.0933 170.505 76.5879 169.743 75.5771C168.981 74.5664 168.601 73.1821 168.601 71.4243C168.601 69.8862 168.959 68.4946 169.677 67.2495C170.395 65.9897 171.567 64.6641 173.193 63.2725C174.306 62.3203 175.412 61.6025 176.511 61.1191C177.609 60.6357 178.591 60.394 179.455 60.394C180.144 60.394 180.686 60.5552 181.081 60.8774C181.491 61.1851 181.696 61.6538 181.696 62.2837C181.696 63.2065 181.352 64.1294 180.664 65.0522C179.975 65.9604 178.92 66.8687 177.5 67.7769C176.093 68.6704 174.357 69.5347 172.292 70.3696ZM172.512 68.9414C173.83 68.4287 174.958 67.7915 175.896 67.0298C176.833 66.2681 177.521 65.543 177.961 64.8545C178.415 64.1514 178.642 63.6387 178.642 63.3164C178.642 62.9795 178.488 62.811 178.181 62.811C177.917 62.811 177.485 62.9795 176.884 63.3164C176.298 63.6533 175.698 64.0928 175.083 64.6348C174.482 65.1768 173.94 65.814 173.457 66.5464C172.973 67.2788 172.658 68.0771 172.512 68.9414ZM196.726 65.6016C194.147 68.4727 192.858 70.4722 192.858 71.6001C192.858 72.23 193.115 72.5449 193.627 72.5449C194.052 72.5449 194.602 72.3252 195.275 71.8857C195.964 71.4316 197.033 70.6333 198.483 69.4907V71.0068C196.403 73.0576 194.807 74.5371 193.693 75.4453C192.58 76.3535 191.672 76.8076 190.969 76.8076C189.768 76.8076 189.167 76.0166 189.167 74.4346C189.167 73.9658 189.24 73.5044 189.387 73.0503C189.533 72.5962 189.731 72.1274 189.98 71.644C190.244 71.146 190.639 70.4429 191.167 69.5347C191.694 68.6118 192.302 67.5718 192.99 66.4146C192.155 66.8394 191.108 67.6816 189.848 68.9414C189.028 69.7324 188.332 70.4868 187.761 71.2046C187.189 71.9077 186.574 72.6987 185.915 73.5776C185.271 74.4419 184.794 75.0278 184.487 75.3354C184.194 75.6284 183.894 75.7749 183.586 75.7749C183.117 75.7749 182.685 75.2842 182.29 74.3027C181.894 73.3213 181.696 72.1787 181.696 70.875C181.696 70.0693 181.784 69.4395 181.96 68.9854C182.15 68.5312 182.517 67.8867 183.059 67.0518C184.069 65.499 184.941 64.3638 185.673 63.646C186.406 62.9136 187.109 62.5474 187.783 62.5474C188.251 62.5474 188.625 62.6279 188.903 62.7891C189.196 62.9502 189.343 63.1992 189.343 63.5361C189.343 63.6826 189.299 63.8364 189.211 63.9976C189.123 64.1587 189.021 64.3052 188.903 64.437C188.801 64.5688 188.574 64.8252 188.222 65.2061C185.908 67.7695 184.75 69.4321 184.75 70.1938C184.75 70.6187 184.89 70.8311 185.168 70.8311C185.344 70.8311 185.681 70.5527 186.179 69.9961C186.691 69.4248 187.343 68.6851 188.134 67.7769C188.94 66.854 189.885 65.8945 190.969 64.8984C192.067 63.9023 193.312 62.9429 194.704 62.02C195.48 61.478 196.125 61.207 196.638 61.207C196.872 61.207 197.099 61.5293 197.319 62.1738C197.553 62.8184 197.67 63.4702 197.67 64.1294C197.67 64.4517 197.355 64.9424 196.726 65.6016Z"
        fill="#E26B2B" />
</svg>